<?xml version="1.0" encoding="UTF-8"?>
<svg id="Ebene_2" data-name="Ebene 2" xmlns="http://www.w3.org/2000/svg" viewBox="0 0 413.38 326.17">
  <defs>
    <style>
      .cls-1 {
        fill: #005d3a;
        opacity: .5;
      }

      .cls-1, .cls-2, .cls-3 {
        stroke-width: 0px;
      }

      .cls-2 {
        fill: #009f64;
      }

      .cls-3 {
        fill: #2a2e3f;
      }
    </style>
  </defs>
  <g id="Ebene_1-2" data-name="Ebene 1">
    <g>
      <path class="cls-2" d="m406.75,61.68h0s0,0,0,0c-14.34-24.25-49.37-33.16-98.65-25.07-1.18.19-2.37.4-3.56.61v-16.89c0-11.21-8.89-20.33-19.83-20.33H127.86c-10.93,0-19.83,9.12-19.83,20.33v107.87c-30.7,22.75-56.78,47.24-75.81,71.47C1.38,238.95-7.71,273.93,6.63,298.19h0c.34.58.7,1.15,1.06,1.71.01.02.02.03.03.05,1.82,2.79,3.92,5.35,6.3,7.7,2.87,2.83,6.14,5.34,9.79,7.53,1.22.73,2.48,1.42,3.78,2.08,3.9,1.97,8.18,3.62,12.81,4.94.77.22,1.55.43,2.34.63,8.7,2.22,18.58,3.34,29.5,3.34h0c17.37,0,37.4-2.84,59.58-8.57h0V23.79h148.93v196.31h0v28.76h0c31-20.45,58.47-42.92,80.36-65.72.05-.05.1-.11.15-.16,3.41-3.56,6.68-7.12,9.82-10.69,2.33-2.65,4.57-5.3,6.73-7.94.66-.8,1.31-1.61,1.95-2.41.46-.58.93-1.16,1.39-1.75,1.83-2.33,3.58-4.65,5.26-6.95.18-.25.37-.51.55-.76,1.17-1.62,2.31-3.24,3.41-4.84.05-.08.11-.15.16-.23,1.51-2.22,2.95-4.42,4.31-6.61.53-.85,1.05-1.7,1.56-2.55,1.65-2.74,3.18-5.45,4.58-8.12.06-.11.11-.21.17-.32,4.99-9.54,8.47-18.66,10.41-27.26.14-.63.28-1.27.41-1.89,2.97-14.8,1.28-27.99-5.21-38.98ZM108.04,163.01v135.58c-3.39.65-6.71,1.22-9.96,1.7-.02,0-.05,0-.07.01-3.17.47-6.27.86-9.3,1.18-.1,0-.19.02-.29.03-.85.09-1.68.16-2.52.24-.39.03-.78.07-1.17.1-.76.06-1.52.12-2.27.18-.58.04-1.15.07-1.73.1-.99.06-1.97.11-2.94.15-.65.03-1.29.05-1.93.07-.52.01-1.03.03-1.54.03-.76.01-1.52.02-2.27.02-.37,0-.74,0-1.1,0-1.09,0-2.15-.03-3.21-.07-.32-.01-.64-.03-.96-.04-.82-.03-1.63-.07-2.43-.12-.32-.02-.64-.04-.95-.06-1.06-.08-2.11-.16-3.14-.27-1.09-.11-2.2-.24-3.34-.4-.76-.11-1.53-.22-2.3-.35-1.16-.2-2.34-.42-3.52-.67-4.59-.99-9.24-2.48-13.37-4.68-.69-.37-1.37-.76-2.03-1.17-.24-.15-.48-.3-.72-.46-3.2-2.1-5.94-4.73-7.88-8.02h0c-8.74-14.78.17-41.59,23.83-71.71,14.79-18.84,34.27-37.93,57.1-56.18v4.82Zm196.51-101.6c13.63-2.65,26.03-3.96,36.88-3.96,22.62,0,38.52,5.63,44.85,16.33h0s0,0,0,.01c.23.39.45.79.65,1.19.07.14.13.28.2.42.13.28.26.55.39.83.07.17.14.34.21.51.11.26.21.52.31.79.07.18.13.37.19.56.09.26.17.52.25.79.06.2.11.39.17.59.07.27.14.53.2.81.05.2.09.41.14.61.06.28.11.56.16.84.04.21.07.41.11.62.05.29.08.59.12.89.03.2.05.4.07.61.03.33.06.67.08,1.01.01.18.03.35.04.53.03.51.05,1.03.05,1.55,0,.15,0,.3,0,.45,0,.38,0,.77-.02,1.16,0,.23-.02.46-.03.69-.02.32-.03.64-.06.96-.02.25-.04.51-.07.77-.03.31-.06.61-.09.92-.03.27-.07.54-.1.82-.04.3-.08.6-.13.91-.04.28-.09.57-.14.85-.05.3-.11.61-.16.91-.05.29-.11.59-.17.88-.06.3-.13.61-.2.91-.07.3-.13.61-.21.91-.07.3-.15.61-.23.91-.08.31-.16.63-.24.95-.08.3-.17.6-.26.9-.37,1.29-.78,2.6-1.25,3.94-.09.26-.18.52-.27.79-.14.38-.28.77-.43,1.15-.1.27-.2.54-.31.82-.15.39-.31.78-.47,1.17-.11.27-.22.55-.33.82-.16.4-.34.8-.51,1.2-.12.27-.23.54-.35.81-.18.41-.37.83-.56,1.25-.12.26-.24.52-.36.78-.2.43-.4.87-.61,1.3-.12.24-.24.48-.35.72-.23.46-.45.92-.69,1.39-.1.19-.2.38-.29.57-1.27,2.48-2.67,5-4.2,7.58-.05.08-.09.16-.14.23-.34.58-.7,1.15-1.05,1.73-.1.16-.19.31-.29.47-.34.56-.7,1.12-1.05,1.68-.11.18-.23.36-.34.54-.36.56-.72,1.12-1.09,1.68-.12.18-.23.35-.35.53-.38.58-.77,1.15-1.16,1.73-.1.15-.21.31-.32.46-.42.61-.84,1.22-1.27,1.83-.07.1-.14.2-.21.29-3.04,4.32-6.4,8.74-10.09,13.24-.03.03-.05.06-.08.09-.59.72-1.18,1.44-1.79,2.16-.06.07-.11.14-.17.21-.6.71-1.2,1.42-1.82,2.14-.06.07-.11.13-.17.2-.63.73-1.26,1.46-1.91,2.2-.03.03-.05.06-.08.09-12.29,14-27.56,28.63-45.57,43.22-.01,0-.02.02-.03.03-1,.81-2,1.61-3.01,2.42h0s0-140.91,0-140.91Z"/>
      <path class="cls-3" d="m169.91,171.4c8.5,0,14.6-6.1,14.6-14.6s-6.1-14.79-14.6-14.79-14.6,6.28-14.6,14.79,6.1,14.6,14.6,14.6"/>
      <polygon class="cls-1" points="92.83 139.9 92.83 170.9 108.04 158.18 108.04 128.19 92.83 139.9"/>
      <path class="cls-1" d="m304.67,61.39c5.26-1.02,10.33-1.84,15.21-2.46v-23.94c-3.83.43-7.75.96-11.77,1.62-1.14.19-2.28.38-3.43.59v24.19Z"/>
    </g>
  </g>
</svg>
