<?xml version="1.0" encoding="UTF-8"?>
<svg id="Ebene_1" data-name="Ebene 1" xmlns="http://www.w3.org/2000/svg" xmlns:xlink="http://www.w3.org/1999/xlink" viewBox="0 0 200 200">
  <defs>
    <style>
      .cls-1 {
        fill: url(#Unbenannter_Verlauf_9);
      }

      .cls-1, .cls-2, .cls-3, .cls-4 {
        stroke-width: 0px;
      }

      .cls-2 {
        fill: #43e77f;
      }

      .cls-3 {
        fill: #fff;
      }

      .cls-4 {
        fill: #009f64;
        opacity: .5;
      }
    </style>
    <linearGradient id="Unbenannter_Verlauf_9" data-name="Unbenannter Verlauf 9" x1="100" y1="8.44" x2="100" y2="190.46" gradientUnits="userSpaceOnUse">
      <stop offset="0" stop-color="#323951"/>
      <stop offset=".9" stop-color="#2a2e3f"/>
    </linearGradient>
  </defs>
  <rect class="cls-1" width="200" height="200" rx="41.17" ry="41.17"/>
  <g>
    <path class="cls-2" d="m178.41,61.85h0s0,0,0,0c-5.6-9.48-19.3-12.96-38.57-9.8-.46.08-.93.16-1.39.24v-6.6c0-4.38-3.48-7.95-7.75-7.95h-61.33c-4.27,0-7.75,3.56-7.75,7.95v42.17c-12,8.89-22.2,18.47-29.64,27.94-12.06,15.35-15.61,29.03-10.01,38.52h0c.13.23.27.45.41.67,0,0,0,.01.01.02.71,1.09,1.53,2.09,2.46,3.01,1.12,1.11,2.4,2.09,3.83,2.95.48.29.97.56,1.48.81,1.53.77,3.2,1.42,5.01,1.93.3.09.61.17.92.25,3.4.87,7.26,1.31,11.53,1.31h0c6.79,0,14.62-1.11,23.29-3.35h0V47.04h58.23v76.75h0v11.24h0c12.12-8,22.86-16.78,31.42-25.69.02-.02.04-.04.06-.06,1.33-1.39,2.61-2.79,3.84-4.18.91-1.04,1.79-2.07,2.63-3.11.26-.31.51-.63.76-.94.18-.23.36-.46.54-.68.72-.91,1.4-1.82,2.06-2.72.07-.1.14-.2.22-.3.46-.63.9-1.27,1.33-1.89.02-.03.04-.06.06-.09.59-.87,1.15-1.73,1.68-2.58.21-.33.41-.67.61-1,.64-1.07,1.24-2.13,1.79-3.18.02-.04.04-.08.07-.12,1.95-3.73,3.31-7.3,4.07-10.66.06-.25.11-.49.16-.74,1.16-5.79.5-10.94-2.04-15.24Zm-116.79,39.62v53.01c-1.32.25-2.62.48-3.89.67,0,0-.02,0-.03,0-1.24.18-2.45.34-3.63.46-.04,0-.08,0-.11.01-.33.03-.66.06-.98.09-.15.01-.31.03-.46.04-.3.02-.59.05-.89.07-.23.02-.45.03-.68.04-.39.02-.77.04-1.15.06-.25.01-.51.02-.76.03-.2,0-.4,0-.6.01-.3,0-.59,0-.89,0-.14,0-.29,0-.43,0-.42,0-.84-.01-1.26-.03-.13,0-.25-.01-.37-.02-.32-.01-.64-.03-.95-.05-.12,0-.25-.02-.37-.02-.41-.03-.83-.06-1.23-.1-.42-.04-.86-.1-1.31-.16-.3-.04-.6-.09-.9-.14-.45-.08-.91-.16-1.38-.26-1.79-.39-3.61-.97-5.23-1.83-.27-.14-.54-.3-.8-.46-.09-.06-.19-.12-.28-.18-1.25-.82-2.32-1.85-3.08-3.13h0c-3.42-5.78.07-16.26,9.32-28.04,5.78-7.37,13.4-14.83,22.32-21.96v1.89Zm76.83-39.72c5.33-1.04,10.18-1.55,14.42-1.55,8.84,0,15.06,2.2,17.53,6.38h0s0,0,0,0c.09.15.17.31.25.47.03.05.05.11.08.16.05.11.1.22.15.33.03.07.05.13.08.2.04.1.08.2.12.31.03.07.05.15.08.22.03.1.07.2.1.31.02.08.04.15.07.23.03.1.05.21.08.32.02.08.04.16.05.24.02.11.04.22.06.33.01.08.03.16.04.24.02.11.03.23.05.35,0,.08.02.16.03.24.01.13.02.26.03.39,0,.07.01.14.02.21.01.2.02.4.02.61,0,.06,0,.12,0,.18,0,.15,0,.3,0,.45,0,.09,0,.18-.01.27,0,.12-.01.25-.02.38,0,.1-.02.2-.03.3-.01.12-.02.24-.04.36-.01.11-.03.21-.04.32-.02.12-.03.24-.05.36-.02.11-.03.22-.05.33-.02.12-.04.24-.06.36-.02.11-.04.23-.07.35-.02.12-.05.24-.08.36-.03.12-.05.24-.08.36-.03.12-.06.24-.09.36-.03.12-.06.25-.09.37-.03.12-.07.23-.1.35-.14.5-.31,1.02-.49,1.54-.04.1-.07.21-.11.31-.05.15-.11.3-.17.45-.04.11-.08.21-.12.32-.06.15-.12.31-.18.46-.04.11-.09.21-.13.32-.06.16-.13.31-.2.47-.05.11-.09.21-.14.32-.07.16-.14.32-.22.49-.05.1-.09.2-.14.31-.08.17-.16.34-.24.51-.05.09-.09.19-.14.28-.09.18-.18.36-.27.54-.04.07-.08.15-.11.22-.5.97-1.04,1.96-1.64,2.96-.02.03-.04.06-.05.09-.13.22-.27.45-.41.68-.04.06-.07.12-.11.18-.13.22-.27.44-.41.66-.04.07-.09.14-.13.21-.14.22-.28.44-.43.66-.05.07-.09.14-.14.21-.15.23-.3.45-.45.68-.04.06-.08.12-.12.18-.16.24-.33.48-.5.72-.03.04-.05.08-.08.11-1.19,1.69-2.5,3.42-3.94,5.18,0,.01-.02.02-.03.04-.23.28-.46.56-.7.84-.02.03-.04.05-.07.08-.23.28-.47.56-.71.84-.02.03-.04.05-.07.08-.25.29-.49.57-.75.86,0,.01-.02.02-.03.03-4.81,5.47-10.77,11.19-17.82,16.9,0,0,0,0-.01.01-.39.32-.78.63-1.18.95h0s0-55.09,0-55.09Z"/>
    <path class="cls-3" d="m85.81,104.75c3.32,0,5.71-2.38,5.71-5.71s-2.38-5.78-5.71-5.78-5.71,2.46-5.71,5.78,2.38,5.71,5.71,5.71"/>
    <polygon class="cls-4" points="55.68 92.44 55.68 104.55 61.62 99.58 61.62 87.86 55.68 92.44"/>
    <path class="cls-4" d="m138.5,61.74c2.06-.4,4.04-.72,5.94-.96v-9.36c-1.5.17-3.03.38-4.6.63-.45.07-.89.15-1.34.23v9.46Z"/>
  </g>
</svg>